<svg width="29" height="33" viewBox="0 0 29 33" fill="none" xmlns="http://www.w3.org/2000/svg">
<g clip-path="url(#clip0_36_1221)">
<path fill-rule="evenodd" clip-rule="evenodd" d="M6.86652 4.70108C5.11336 4.89752 3.82738 5.27676 2.76072 6.00909C2.04614 6.4997 1.41773 7.09352 0.898561 7.76875C-0.708984 9.85956 -0.708984 12.842 -0.708984 18.8071C-0.708984 24.772 -0.708984 27.7545 0.898561 29.8453C1.41773 30.5206 2.04614 31.1144 2.76072 31.605C4.97332 33.124 8.12956 33.1241 14.442 33.1241C15.8543 33.1241 17.1086 33.124 18.2298 33.107V32.9955C18.2296 31.6401 18.2296 30.8145 18.3489 30.1024C19.005 26.1884 22.2534 23.1188 26.3953 22.4989C27.149 22.3861 28.0226 22.3862 29.4569 22.3863L29.575 22.3863C29.593 21.3271 29.593 20.1421 29.593 18.8078C29.593 12.8428 29.593 9.85956 27.9855 7.76875C27.4663 7.09352 26.8379 6.4997 26.1233 6.00909C25.0567 5.27676 23.7707 4.89752 22.0175 4.70108V6.08082C22.0175 7.39865 20.887 8.46696 19.4923 8.46696C18.0977 8.46696 16.9672 7.39865 16.9672 6.08082V4.4945C16.1859 4.49005 15.3464 4.49005 14.442 4.49005C13.5377 4.49005 12.6981 4.49005 11.9168 4.4945V6.08082C11.9168 7.39865 10.7863 8.46696 9.3917 8.46696C7.99706 8.46696 6.86652 7.39865 6.86652 6.08082V4.70108ZM6.02477 14.0347C6.95454 14.0347 7.70826 13.3225 7.70826 12.4439C7.70826 11.5654 6.95454 10.8531 6.02477 10.8531C5.09505 10.8531 4.34133 11.5654 4.34133 12.4439C4.34133 13.3225 5.09505 14.0347 6.02477 14.0347ZM7.70826 18.8071C7.70826 19.6856 6.95454 20.3978 6.02477 20.3978C5.09505 20.3978 4.34133 19.6856 4.34133 18.8071C4.34133 17.9285 5.09505 17.2163 6.02477 17.2163C6.95454 17.2163 7.70826 17.9285 7.70826 18.8071ZM14.442 14.0347C15.3717 14.0347 16.1255 13.3225 16.1255 12.4439C16.1255 11.5654 15.3717 10.8531 14.442 10.8531C13.5123 10.8531 12.7586 11.5654 12.7586 12.4439C12.7586 13.3225 13.5123 14.0347 14.442 14.0347ZM16.1255 18.8071C16.1255 19.6856 15.3717 20.3978 14.442 20.3978C13.5123 20.3978 12.7586 19.6856 12.7586 18.8071C12.7586 17.9285 13.5123 17.2163 14.442 17.2163C15.3717 17.2163 16.1255 17.9285 16.1255 18.8071ZM14.442 26.7609C15.3717 26.7609 16.1255 26.0487 16.1255 25.1701C16.1255 24.2916 15.3717 23.5794 14.442 23.5794C13.5123 23.5794 12.7586 24.2916 12.7586 25.1701C12.7586 26.0487 13.5123 26.7609 14.442 26.7609ZM24.5427 12.4439C24.5427 13.3225 23.789 14.0347 22.8593 14.0347C21.9295 14.0347 21.1758 13.3225 21.1758 12.4439C21.1758 11.5654 21.9295 10.8531 22.8593 10.8531C23.789 10.8531 24.5427 11.5654 24.5427 12.4439ZM22.8593 20.3978C23.789 20.3978 24.5427 19.6856 24.5427 18.8071C24.5427 17.9285 23.789 17.2163 22.8593 17.2163C21.9295 17.2163 21.1758 17.9285 21.1758 18.8071C21.1758 19.6856 21.9295 20.3978 22.8593 20.3978ZM7.70826 25.1701C7.70826 26.0487 6.95454 26.7609 6.02477 26.7609C5.09505 26.7609 4.34133 26.0487 4.34133 25.1701C4.34133 24.2916 5.09505 23.5794 6.02477 23.5794C6.95454 23.5794 7.70826 24.2916 7.70826 25.1701Z" fill="#636AE8"/>
<path d="M10.7976 1.2178C10.7976 0.558881 10.2324 0.0247192 9.53503 0.0247192C8.83773 0.0247192 8.27246 0.558881 8.27246 1.2178V5.99015C8.27246 6.64906 8.83773 7.18322 9.53503 7.18322C10.2324 7.18322 10.7976 6.64906 10.7976 5.99015V1.2178Z" fill="#74ACE2"/>
<path d="M20.447 1.2178C20.447 0.558881 19.8817 0.0247192 19.1844 0.0247192C18.4871 0.0247192 17.9219 0.558881 17.9219 1.2178V5.99015C17.9219 6.64906 18.4871 7.18322 19.1844 7.18322C19.8817 7.18322 20.447 6.64906 20.447 5.99015V1.2178Z" fill="#74ACE2"/>
<path d="M28.8883 24.891C27.3557 24.8912 26.7147 24.8965 26.1956 24.9742C23.1342 25.4324 20.7331 27.7013 20.2482 30.5942C20.166 31.0848 20.1604 31.6905 20.1602 33.1386C22.5837 32.9884 24.2209 32.6213 25.5285 31.7235C26.2431 31.2329 26.8715 30.6391 27.3907 29.9639C28.3407 28.7282 28.7293 27.1811 28.8883 24.891Z" fill="#74ACE2"/>
</g>
<defs>
<clipPath id="clip0_36_1221">
<rect width="29" height="33" fill="white"/>
</clipPath>
</defs>
</svg>
